<?xml version="1.0" standalone="no"?>
<!DOCTYPE svg PUBLIC "-//W3C//DTD SVG 20010904//EN"
 "http://www.w3.org/TR/2001/REC-SVG-20010904/DTD/svg10.dtd">
<svg version="1.0" xmlns="http://www.w3.org/2000/svg"
 width="512.000000pt" height="512.000000pt" viewBox="0 0 512.000000 512.000000"
 preserveAspectRatio="xMidYMid meet">
<metadata>
Created by potrace 1.14, written by Peter Selinger 2001-2017
</metadata>
<g transform="translate(0.000000,512.000000) scale(0.100000,-0.100000)"
fill="#000000" stroke="none">
<path d="M3899 4776 c-2 -2 -31 -7 -64 -10 -33 -4 -68 -9 -78 -12 -11 -3 -29
-7 -40 -9 -37 -5 -119 -25 -192 -48 -38 -12 -72 -22 -75 -22 -8 -3 -41 -15
-135 -52 -138 -55 -355 -164 -505 -253 -115 -69 -143 -81 -190 -85 -67 -6
-146 -15 -174 -21 -12 -2 -34 -7 -51 -9 -178 -32 -412 -121 -579 -222 -179
-109 -406 -309 -513 -453 -112 -151 -201 -308 -248 -436 -14 -38 -30 -78 -35
-89 -9 -21 -46 -152 -54 -195 -3 -14 -10 -49 -15 -79 -6 -30 -14 -84 -17 -120
-5 -48 -14 -78 -35 -111 -176 -279 -229 -371 -318 -555 -53 -110 -124 -283
-124 -302 0 -7 -4 -13 -8 -13 -3 0 -9 -12 -12 -28 -3 -15 -14 -59 -25 -97 -12
-39 -23 -81 -25 -95 -3 -14 -8 -36 -11 -50 -3 -14 -8 -38 -11 -55 -3 -16 -8
-50 -12 -75 -15 -89 -7 -339 12 -370 2 -3 7 -21 10 -38 20 -116 108 -268 207
-360 96 -89 235 -158 378 -188 41 -8 341 -14 354 -6 5 3 23 6 40 8 17 1 45 5
61 9 17 3 44 9 60 12 17 3 37 9 46 14 9 4 18 6 21 4 4 -4 206 58 243 74 11 5
65 28 120 51 96 40 374 180 405 204 8 6 31 20 50 30 19 11 80 49 135 85 55 36
104 68 110 70 5 2 14 8 20 12 5 5 84 64 175 132 91 67 176 132 190 144 14 12
61 52 105 88 230 194 554 515 736 730 19 22 36 42 39 45 3 3 35 41 70 85 36
44 68 85 73 90 103 126 307 423 395 575 100 170 260 498 276 565 2 6 6 17 9
25 8 21 48 142 52 160 2 8 11 47 20 85 35 148 37 162 39 335 1 165 -4 208 -36
310 -81 257 -271 427 -555 496 -60 14 -303 30 -314 20z m218 -565 c99 -27 135
-89 137 -236 1 -132 -6 -173 -63 -364 -6 -22 -8 -21 -46 25 -63 78 -208 217
-292 280 -85 64 -280 184 -300 184 -59 0 107 71 222 95 52 11 69 14 115 20 24
4 46 8 47 9 7 7 143 -3 180 -13z m-1193 -486 c401 -57 759 -310 953 -674 l23
-44 -22 -36 c-86 -143 -332 -478 -423 -577 -11 -12 -40 -46 -65 -75 -118 -138
-367 -392 -494 -504 -38 -33 -76 -67 -85 -76 -13 -14 -194 -165 -241 -202 -32
-26 -238 -175 -283 -206 l-48 -33 -57 27 c-157 74 -373 260 -473 405 -214 311
-283 670 -199 1027 34 144 103 302 176 406 19 26 34 49 34 52 0 14 171 192
235 245 133 109 315 197 510 246 111 28 333 37 459 19z m-1795 -2102 c49 -94
175 -285 219 -332 10 -10 40 -42 68 -72 73 -77 151 -149 208 -192 l48 -37 -43
-18 c-60 -26 -192 -68 -259 -83 -30 -6 -69 -15 -87 -19 -53 -13 -234 -4 -273
13 -37 16 -70 47 -89 84 -24 47 -32 162 -17 263 13 88 14 95 16 95 1 0 3 9 5
21 6 29 71 228 88 267 8 18 22 51 32 75 10 23 21 42 24 42 3 0 30 -48 60 -107z"/>
</g>
</svg>
