<?xml version="1.0" standalone="no"?>
<!DOCTYPE svg PUBLIC "-//W3C//DTD SVG 20010904//EN"
 "http://www.w3.org/TR/2001/REC-SVG-20010904/DTD/svg10.dtd">
<svg version="1.0" xmlns="http://www.w3.org/2000/svg"
 width="512.000000pt" height="512.000000pt" viewBox="0 0 512.000000 512.000000"
 preserveAspectRatio="xMidYMid meet">
<metadata>
Created by potrace 1.14, written by Peter Selinger 2001-2017
</metadata>
<g transform="translate(0.000000,512.000000) scale(0.100000,-0.100000)"
fill="#000000" stroke="none">
<path d="M619 3795 c-3 -2 -17 -6 -32 -9 -43 -8 -112 -46 -151 -83 -124 -121
-130 -401 -11 -529 41 -44 97 -80 137 -88 13 -3 34 -8 48 -11 35 -8 1185 -9
1198 -1 6 3 13 2 16 -2 3 -5 40 -4 85 3 89 15 153 47 200 101 32 36 66 94 55
94 -4 0 -2 6 4 13 17 20 32 179 21 220 -2 10 -4 17 -13 57 -18 77 -82 160
-150 195 -85 44 -97 45 -766 45 -351 -1 -639 -3 -641 -5z m1269 -175 c1 0 9 0
17 0 24 0 82 -58 98 -99 19 -48 16 -143 -6 -193 -10 -22 -35 -49 -59 -65 l-42
-28 -615 -1 c-642 0 -667 1 -713 42 -36 33 -56 88 -56 154 0 35 5 76 11 90 13
30 54 77 82 93 23 14 1184 27 1245 15 19 -4 36 -7 38 -8z"/>
<path d="M2310 3782 c-6 -2 -10 -123 -10 -353 l0 -349 75 3 c41 1 75 -1 75 -4
0 -4 8 -5 18 -3 16 5 17 27 16 309 0 168 1 303 3 301 2 -2 6 -15 8 -30 3 -14
7 -36 9 -48 2 -13 16 -79 31 -148 15 -69 28 -133 28 -142 1 -10 4 -18 7 -18 3
0 6 -12 7 -27 1 -16 9 -65 19 -110 15 -71 20 -82 41 -86 13 -2 26 -1 28 4 3 4
15 6 28 3 24 -5 92 -5 180 -1 31 1 57 -2 57 -6 0 -5 5 -5 10 -2 6 4 10 134 10
358 l0 352 -86 0 c-73 0 -88 -3 -93 -17 -3 -10 -6 -146 -5 -303 0 -262 -5
-326 -20 -235 -5 30 -22 101 -42 175 -3 11 -7 31 -10 45 -3 14 -7 32 -9 40 -2
8 -4 15 -5 15 -1 0 -3 7 -5 15 -18 91 -59 247 -66 255 -8 8 -275 15 -299 7z"/>
<path d="M3137 2913 c-3 -2 -17 -6 -32 -9 -83 -15 -182 -96 -221 -180 -34 -73
-48 -193 -31 -274 8 -41 38 -110 48 -110 5 0 9 -4 9 -10 0 -30 77 -88 161
-120 79 -29 224 -24 300 11 91 43 161 131 176 223 l5 31 -90 -3 c-90 -3 -91
-4 -97 -31 -11 -51 -88 -89 -170 -85 -118 5 -179 78 -175 209 2 84 30 133 96
172 21 11 140 12 184 0 22 -6 63 -49 66 -69 1 -5 2 -11 3 -15 0 -5 40 -8 89
-8 l87 1 -2 27 c-2 32 -31 95 -55 121 -10 11 -18 22 -18 26 0 10 -95 67 -135
80 -38 12 -189 22 -198 13z"/>
<path d="M402 2896 c-5 -6 -8 -164 -8 -351 l1 -340 155 0 c174 1 223 6 294 30
142 49 205 148 201 315 -1 47 -5 99 -9 115 -9 36 -45 94 -83 130 -34 33 -138
84 -181 90 -17 2 -36 7 -42 10 -20 12 -319 13 -328 1z m363 -162 c64 -30 98
-97 97 -190 -1 -83 -36 -164 -71 -164 -6 0 -11 -4 -11 -8 0 -5 -6 -9 -12 -10
-7 0 -28 -4 -47 -7 -35 -7 -64 -8 -121 -6 l-35 1 2 113 c1 61 2 154 2 205 l1
93 80 -5 c44 -3 96 -13 115 -22z"/>
<path d="M1162 2900 c-4 -3 -7 -159 -7 -348 0 -296 2 -343 15 -346 8 -3 130
-5 272 -4 l256 0 4 37 c1 20 2 50 0 68 l-3 32 -180 -1 c-98 -1 -182 2 -185 5
-8 7 -8 136 -1 143 3 3 63 7 134 7 l128 2 0 65 0 65 -124 2 c-68 1 -129 4
-136 7 -6 2 -11 15 -9 28 1 12 3 39 3 59 l1 37 168 0 c92 0 172 0 177 1 12 1
18 140 7 142 -23 4 -515 3 -520 -1z"/>
<path d="M1773 2893 c-3 -7 0 -20 7 -28 7 -9 10 -18 7 -22 -4 -3 -3 -11 2 -17
8 -10 51 -140 57 -174 1 -8 6 -21 10 -30 4 -9 9 -26 11 -37 3 -18 9 -38 29
-90 9 -25 12 -34 18 -63 3 -12 8 -27 11 -32 4 -6 8 -22 11 -36 2 -13 15 -55
27 -93 l22 -68 147 0 146 -1 13 47 c6 25 15 51 18 56 3 6 7 16 8 23 2 6 4 18
6 25 5 19 47 159 57 187 5 14 23 72 40 130 18 58 34 112 37 120 4 8 5 21 4 28
-1 6 3 12 9 12 6 0 10 6 9 13 -1 6 1 20 6 30 4 10 4 21 1 25 -4 3 -47 7 -97 7
l-89 1 -10 -38 c-6 -21 -15 -57 -22 -80 -7 -24 -13 -50 -14 -58 -1 -8 -12 -46
-23 -85 -12 -38 -23 -79 -26 -90 -2 -11 -11 -45 -20 -75 -20 -69 -23 -81 -44
-170 l-8 -35 -20 70 c-20 68 -100 360 -108 393 -21 87 -39 149 -47 157 -14 15
-179 13 -185 -2z"/>
<path d="M2595 2555 l0 -355 87 0 88 0 0 355 0 355 -88 0 -87 0 0 -355z"/>
<path d="M3646 2900 c-2 -3 -3 -160 -2 -350 l1 -345 184 0 185 0 -1 58 c-1 31
-1 61 -2 66 -1 6 -25 10 -53 10 -29 -1 -73 0 -98 0 l-45 1 -1 75 c0 61 2 75
15 76 9 0 55 0 102 0 l87 0 0 69 0 68 -71 1 c-40 0 -86 0 -103 0 l-30 1 0 60
c0 71 -2 70 116 67 l75 -1 3 75 3 74 -181 0 c-100 0 -183 -2 -184 -5z"/>
<path d="M1968 2039 c-72 -14 -147 -61 -190 -119 -43 -58 -65 -136 -66 -227
-1 -169 53 -275 171 -333 74 -36 178 -51 252 -36 17 3 44 8 60 12 38 7 102 44
139 80 94 95 121 309 56 448 -41 85 -122 154 -205 171 -52 11 -168 13 -217 4z
m164 -169 c41 0 107 -72 114 -125 1 -5 3 -12 4 -15 5 -12 6 -76 1 -85 -3 -5
-6 -20 -7 -33 -7 -60 -85 -121 -161 -126 -123 -7 -205 76 -198 203 5 78 8 88
39 127 34 42 68 60 126 63 25 2 47 5 50 8 2 2 6 -1 8 -6 2 -6 13 -11 24 -11z"/>
<path d="M3368 2044 c-2 -2 -17 -5 -34 -8 -51 -9 -96 -32 -142 -71 -77 -67
-112 -166 -107 -307 7 -194 104 -307 290 -335 40 -6 370 -6 416 0 184 24 293
158 291 357 -1 64 -9 120 -21 152 -5 13 -8 25 -7 28 2 8 -38 61 -73 97 -70 74
-127 87 -393 89 -120 1 -219 0 -220 -2z m404 -167 c105 -20 163 -146 126 -270
-15 -51 -70 -105 -117 -114 -62 -11 -372 -9 -409 4 -19 6 -45 22 -59 35 -25
23 -59 78 -48 78 4 0 3 6 -2 13 -10 16 -12 117 -2 117 5 0 6 6 4 13 -7 19 47
90 80 107 17 8 50 17 75 20 54 6 314 4 352 -3z"/>
<path d="M4364 2041 c-2 -3 -11 -6 -19 -7 -43 -6 -89 -30 -122 -62 -54 -52
-61 -70 -59 -143 1 -70 22 -110 76 -149 30 -21 134 -58 182 -65 93 -12 167
-50 162 -82 -1 -7 -2 -17 -3 -22 -2 -14 -55 -32 -97 -33 -79 -2 -149 33 -166
84 -5 14 -166 19 -174 6 -3 -5 0 -32 7 -60 22 -92 121 -169 234 -181 17 -2 35
-6 40 -9 6 -3 21 -4 35 -2 14 1 51 5 82 8 68 7 143 38 181 74 31 29 60 78 54
90 -3 4 -1 16 3 27 10 27 -6 91 -31 124 -37 50 -137 90 -289 116 -51 9 -102
38 -111 63 -31 84 207 86 248 2 12 -23 18 -25 93 -26 l80 -2 0 32 c-1 89 -86
182 -195 211 -33 9 -203 14 -211 6z"/>
<path d="M399 2032 c-15 -3 -16 -38 -15 -350 l1 -347 86 -2 86 -2 -1 111 c0
60 3 113 8 116 6 3 54 7 109 8 55 1 104 7 110 13 6 6 19 11 29 11 27 0 106 83
116 122 14 50 7 159 -11 195 -33 64 -84 102 -157 119 -34 7 -329 13 -361 6z
m274 -136 c10 10 76 -25 90 -48 25 -40 20 -91 -13 -123 -24 -23 -40 -28 -99
-33 -84 -6 -103 5 -91 47 4 16 5 33 1 39 -5 9 -6 42 -2 110 1 9 11 12 31 8 17
-2 30 0 30 5 0 5 10 5 24 -1 13 -5 26 -6 29 -4z"/>
<path d="M1021 2032 c-8 -3 -11 -100 -11 -353 l0 -350 88 3 87 3 1 132 c0 73
3 135 6 138 8 8 247 9 255 1 3 -3 7 -66 7 -139 l1 -132 85 0 85 0 2 345 c1
210 -1 347 -7 350 -8 5 -137 6 -161 1 -4 0 -7 -56 -7 -123 0 -68 0 -131 -1
-140 -1 -16 -14 -18 -130 -18 -94 0 -130 3 -133 13 -2 6 -3 69 -2 140 0 70 -2
128 -5 128 -17 4 -150 4 -160 1z"/>
<path d="M2482 2030 c-9 -6 -8 -127 0 -135 3 -4 46 -7 96 -7 l89 0 1 -246 c0
-136 1 -262 1 -279 l1 -33 79 0 c52 0 82 4 87 12 4 7 8 132 8 278 1 258 2 265
21 266 11 1 54 2 95 3 l75 1 -1 63 c-1 34 -3 67 -3 72 -1 10 -536 15 -549 5z"/>
</g>
</svg>
